REM GENRE anime
REM DATE 2018
REM DISCID 3B03B104
REM COMMENT "ExactAudioCopy v1.3"
CATALOG 4935228173068
PERFORMER "MYTH&ROID"
TITLE "HYDRA"
REM COMPOSER ""
FILE "MYTH&ROID - HYDRA.wav" WAVE
  TRACK 01 AUDIO
    TITLE "HYDRA"
    PERFORMER "MYTH&ROID"
    REM COMPOSER ""
    ISRC JPD731700610
    INDEX 01 00:00:00
  TRACK 02 AUDIO
    TITLE "Stormy Glory"
    PERFORMER "MYTH&ROID"
    REM COMPOSER ""
    ISRC JPD731700611
    INDEX 00 04:51:49
    INDEX 01 04:54:19
  TRACK 03 AUDIO
    TITLE "HYDRA (instrumental)"
    PERFORMER "MYTH&ROID"
    REM COMPOSER ""
    ISRC JPD731700612
    INDEX 00 07:50:61
    INDEX 01 07:55:31
  TRACK 04 AUDIO
    TITLE "Stormy Glory (instrumental)"
    PERFORMER "MYTH&ROID"
    REM COMPOSER ""
    ISRC JPD731700613
    INDEX 00 12:44:64
    INDEX 01 12:47:34